<svg width="13" height="12" viewBox="0 0 13 12" fill="none" xmlns="http://www.w3.org/2000/svg">
<path d="M5.51539 0.745361C5.88653 0.0181099 6.92568 0.0181088 7.29682 0.74536L8.39499 2.89723C8.54029 3.18195 8.81295 3.38005 9.12864 3.43026L11.5145 3.80972C12.3209 3.93796 12.642 4.92625 12.065 5.50396L10.3578 7.21334C10.132 7.43952 10.0278 7.76005 10.0776 8.0758L10.454 10.4622C10.5812 11.2687 9.74053 11.8795 9.0128 11.5093L6.85952 10.4139C6.57462 10.2689 6.23759 10.2689 5.95268 10.4139L3.79941 11.5093C3.07168 11.8795 2.23099 11.2687 2.3582 10.4622L2.7346 8.0758C2.7844 7.76005 2.68025 7.43952 2.45437 7.21335L0.747171 5.50396C0.170203 4.92625 0.491317 3.93796 1.29766 3.80972L3.68357 3.43026C3.99925 3.38005 4.27191 3.18195 4.41721 2.89723L5.51539 0.745361Z" fill="#FFB84E"/>
</svg>
