<svg width="13" height="12" viewBox="0 0 13 12" fill="none" xmlns="http://www.w3.org/2000/svg">
<path d="M5.70386 0.745361C6.075 0.0181099 7.11415 0.0181088 7.48529 0.74536L8.58346 2.89723C8.72877 3.18195 9.00143 3.38005 9.31711 3.43026L11.703 3.80972C12.5094 3.93796 12.8305 4.92625 12.2535 5.50396L10.5463 7.21334C10.3204 7.43952 10.2163 7.76005 10.2661 8.0758L10.6425 10.4622C10.7697 11.2687 9.929 11.8795 9.20127 11.5093L7.048 10.4139C6.76309 10.2689 6.42606 10.2689 6.14116 10.4139L3.98788 11.5093C3.26016 11.8795 2.41947 11.2687 2.54667 10.4622L2.92307 8.0758C2.97287 7.76005 2.86873 7.43952 2.64284 7.21335L0.935648 5.50396C0.35868 4.92625 0.679793 3.93796 1.48614 3.80972L3.87204 3.43026C4.18773 3.38005 4.46039 3.18195 4.60569 2.89723L5.70386 0.745361Z" fill="#CBD0D2"/>
</svg>
