<svg width="41" height="33" viewBox="0 0 41 33" fill="none" xmlns="http://www.w3.org/2000/svg">
<path fill-rule="evenodd" clip-rule="evenodd" d="M34.2496 16.1223C34.2605 7.27991 27.2696 0.082782 18.5893 0H18.5655H11.0361C9.08097 0.00257806 7.20692 0.796192 5.82623 2.20625C4.44554 3.61632 3.6713 5.52732 3.67383 7.51887V24.7306C3.6713 26.7221 4.44554 28.6331 5.82623 30.0432C7.20692 31.4533 9.08097 32.2469 11.0361 32.2495H18.5607C18.5607 32.2495 18.5607 32.2495 18.5845 32.2495C27.2648 32.1667 34.2557 24.9695 34.2449 16.1272" fill="url(#paint0_linear)"/>
<path fill-rule="evenodd" clip-rule="evenodd" d="M16.3884 24.648C15.9572 24.6422 15.5954 24.315 15.5386 23.8796L14.068 13.1314L13.2611 16.8859C12.9424 18.3464 11.6742 19.388 10.2055 19.3955H0.551453C0.246894 19.3955 0 19.144 0 18.8337C0 18.5235 0.246894 18.272 0.551453 18.272H10.2102C11.1628 18.2657 11.9847 17.5899 12.1916 16.6428L13.2134 11.896C13.3127 11.4563 13.7052 11.1508 14.1478 11.1686C14.5905 11.1865 14.958 11.5226 15.0229 11.969L16.4171 22.2552L18.8473 7.9518C18.9159 7.51599 19.2877 7.19726 19.721 7.20283C20.1569 7.20352 20.5256 7.53139 20.5852 7.97125L21.8743 16.6574C22.015 17.5849 22.7959 18.2712 23.7173 18.2769H39.6927C39.9972 18.2769 40.2441 18.5284 40.2441 18.8386C40.2441 19.1488 39.9972 19.4003 39.6927 19.4003H23.722C22.2592 19.3894 21.0199 18.3 20.7953 16.8276L19.7019 9.46433L17.243 23.9087C17.1729 24.3363 16.8092 24.6491 16.3836 24.648" fill="#2A3D44"/>
<defs>
<linearGradient id="paint0_linear" x1="34.2496" y1="32.2495" x2="34.2496" y2="0" gradientUnits="userSpaceOnUse">
<stop stop-color="#B3EFE8"/>
<stop offset="1" stop-color="#E8EDCF"/>
</linearGradient>
</defs>
</svg>
