<svg width="169" height="40" viewBox="0 0 169 40" fill="none" xmlns="http://www.w3.org/2000/svg">
<path fill-rule="evenodd" clip-rule="evenodd" d="M42.2498 19.8881C42.2632 8.98031 33.6394 0.102118 22.9316 0H22.9022H13.6141C11.2023 0.00318023 8.89056 0.982162 7.18738 2.72158C5.48419 4.461 4.52911 6.81837 4.53223 9.2751V30.507C4.52911 32.9638 5.48419 35.3211 7.18738 37.0605C8.89056 38.8 11.2023 39.7789 13.6141 39.7821H22.8963C22.8963 39.7821 22.8963 39.7821 22.9257 39.7821C33.6335 39.68 42.2573 30.8018 42.2439 19.8941" fill="url(#paint0_linear)"/>
<path fill-rule="evenodd" clip-rule="evenodd" d="M20.2163 30.4051C19.6844 30.3979 19.2381 29.9944 19.168 29.4572L17.354 16.1985L16.3586 20.8301C15.9655 22.6317 14.401 23.9165 12.5892 23.9258H0.680259C0.304562 23.9258 0 23.6155 0 23.2328C0 22.8501 0.304562 22.5399 0.680259 22.5399H12.5951C13.7701 22.5321 14.784 21.6984 15.0393 20.5301L16.2997 14.6747C16.4223 14.1322 16.9064 13.7553 17.4524 13.7774C17.9984 13.7994 18.4518 14.214 18.5319 14.7646L20.2517 27.4534L23.2495 9.80913C23.3342 9.27153 23.7929 8.87835 24.3274 8.88522C24.8651 8.88607 25.3199 9.29052 25.3934 9.83313L26.9836 20.5481C27.1571 21.6923 28.1205 22.5388 29.257 22.5459H48.9639C49.3396 22.5459 49.6442 22.8561 49.6442 23.2388C49.6442 23.6215 49.3396 23.9318 48.9639 23.9318H29.2629C27.4585 23.9183 25.9297 22.5744 25.6525 20.7581L24.3038 11.6749L21.2706 29.4932C21.1841 30.0206 20.7354 30.4066 20.2105 30.4051" fill="#2A3D44"/>
<path opacity="0.9" fill-rule="evenodd" clip-rule="evenodd" d="M113.387 20.7153C113.387 22.2642 113.387 23.8131 113.387 25.362C113.387 25.6521 113.472 25.8108 113.745 25.8765C114.233 25.9811 114.586 26.417 114.595 26.9274C114.649 27.9016 114.643 28.8868 114.595 29.861C114.548 30.1862 114.376 30.4785 114.116 30.6728C113.857 30.8671 113.533 30.9472 113.216 30.8954C112.877 30.8887 112.556 30.7404 112.327 30.4851C112.097 30.2298 111.98 29.8896 112.002 29.5435C112.002 29.2261 112.002 28.9032 112.002 28.5857C112.002 28.3613 111.927 28.2464 111.697 28.2464H105.591C105.366 28.2464 105.275 28.3559 105.27 28.5803C105.274 29.0337 105.251 29.487 105.2 29.9376C105.043 30.5179 104.519 30.9132 103.93 30.895C103.342 30.8768 102.842 30.45 102.719 29.861C102.667 28.8839 102.667 27.9045 102.719 26.9274C102.731 26.3996 103.108 25.9554 103.618 25.8711C104.115 25.7671 104.27 25.3237 104.425 24.9516C104.743 24.0891 104.924 23.1799 104.96 22.2588C105.088 20.2264 105.2 18.1922 105.297 16.1562C105.279 15.548 105.618 14.9877 106.157 14.7332C106.383 14.6373 106.625 14.5907 106.869 14.5964C108.505 14.5964 110.141 14.5964 111.777 14.5964C112.218 14.562 112.651 14.7286 112.96 15.0516C113.27 15.3745 113.424 15.8209 113.382 16.2711C113.355 17.7489 113.387 19.2321 113.387 20.7153ZM110.757 21.405C110.757 20.075 110.757 18.745 110.757 17.4096C110.757 17.1031 110.655 16.9882 110.35 16.9936C109.639 16.9936 108.928 16.9936 108.211 16.9936C107.949 16.9936 107.837 17.0648 107.826 17.3549C107.784 18.7177 107.752 20.0914 107.655 21.4488C107.591 22.3737 107.447 23.2987 107.297 24.2127C107.201 24.6089 107.085 24.9998 106.949 25.384C106.853 25.7397 106.885 25.778 107.254 25.778H110.324C110.73 25.778 110.751 25.778 110.751 25.3292C110.755 24.0193 110.755 22.7094 110.751 21.3995L110.757 21.405Z" fill="#2A3D44"/>
<path opacity="0.9" fill-rule="evenodd" clip-rule="evenodd" d="M68.7434 20.7592C68.4279 21.3886 68.1124 22.0235 67.7969 22.6529C67.4814 23.2823 67.1766 23.9555 66.8398 24.5958C66.6567 25.0709 66.2566 25.4231 65.7703 25.5372C65.0521 25.6851 64.3361 25.2733 64.086 24.5685L62.2572 20.8577C62.2214 20.8057 62.1821 20.7563 62.1396 20.7099C62.1135 20.873 62.0956 21.0375 62.0861 21.2025C62.0861 23.1181 62.0861 25.0337 62.0861 26.9438C62.1345 27.666 61.6207 28.2999 60.9183 28.3846C60.216 28.4694 59.5723 27.9751 59.4553 27.2613C59.4497 27.1592 59.4497 27.0568 59.4553 26.9548C59.4553 23.2768 59.4553 19.5988 59.4553 15.9209C59.3915 15.4093 59.6097 14.9037 60.0221 14.6073C60.412 14.3961 60.8697 14.3585 61.2876 14.5035C61.7054 14.6485 62.0464 14.9632 62.2305 15.3736C63.2358 17.4479 64.2571 19.5168 65.273 21.5801C65.3274 21.6583 65.3922 21.7283 65.4655 21.7881C65.5297 21.7224 65.6153 21.6732 65.6527 21.5911C66.6687 19.5222 67.6829 17.4534 68.6953 15.3845C68.8561 14.9575 69.1927 14.6248 69.6152 14.475C70.0377 14.3252 70.5032 14.3736 70.8876 14.6073C71.2993 14.8605 71.5401 15.3261 71.5132 15.8169C71.5132 17.1049 71.5132 18.3911 71.5132 19.6755C71.5132 22.1019 71.5132 24.5265 71.5132 26.9493C71.5814 27.6177 71.129 28.2247 70.4812 28.334C70.1041 28.4276 69.7059 28.3438 69.3954 28.1054C69.085 27.8671 68.8949 27.4993 68.8771 27.1025C68.8771 26.3035 68.8771 25.5099 68.8771 24.7108C68.8771 23.5286 68.8771 22.3409 68.8771 21.1587C68.8702 21.0193 68.8559 20.8805 68.8343 20.7427L68.7434 20.7592Z" fill="#2A3D44"/>
<path opacity="0.9" fill-rule="evenodd" clip-rule="evenodd" d="M92.2077 20.1845C92.1293 20.2438 92.0591 20.3137 91.9992 20.3925C90.9297 22.2898 89.8603 24.189 88.7908 26.09C88.5288 26.5607 88.2561 27.0423 87.9995 27.5076C87.8024 27.9153 87.4412 28.2146 87.0106 28.3271C86.58 28.4397 86.1229 28.3542 85.759 28.0932C85.5365 27.8497 85.3637 27.5631 85.251 27.2503C85.2249 27.1277 85.2249 27.0008 85.251 26.8781C85.251 23.2002 85.251 19.5222 85.251 15.8443C85.2193 15.3687 85.4347 14.9112 85.8178 14.6402C86.1996 14.3633 86.6997 14.3254 87.1172 14.5417C87.6045 14.7545 87.9129 15.2531 87.8925 15.795C87.8925 16.5777 87.8925 17.3658 87.8925 18.1539C87.8925 19.5332 87.8925 20.8905 87.8925 22.2862C87.9007 22.4257 87.9167 22.5645 87.9406 22.7021H88.0315L88.8122 21.3065C89.9405 19.2869 91.0581 17.2618 92.197 15.2477C92.3936 14.8682 92.7321 14.5864 93.1351 14.4668C93.5382 14.3471 93.9714 14.3998 94.3359 14.6128C94.6371 14.7885 94.8364 15.1026 94.8706 15.4557C94.8706 15.6472 94.9081 15.8388 94.9081 16.0358C94.9081 19.6226 94.9081 23.2093 94.9081 26.796C94.9747 27.3257 94.7506 27.8497 94.3252 28.1589C93.4804 28.7062 92.3574 28.0494 92.336 27.2832C92.336 27.0916 92.304 26.9 92.304 26.703C92.304 24.6633 92.304 22.6255 92.304 20.5895V20.1954L92.2077 20.1845Z" fill="#2A3D44"/>
<path opacity="0.9" fill-rule="evenodd" clip-rule="evenodd" d="M125.478 21.3886C125.478 22.1877 125.504 22.9813 125.478 23.7803C125.466 25.1405 124.881 26.4292 123.873 27.316C123.287 27.8165 122.583 28.1522 121.831 28.2902C121.021 28.4637 120.186 28.4637 119.376 28.2902C117.967 28.0497 116.773 27.0934 116.205 25.7507C115.838 24.9208 115.656 24.018 115.671 23.1071C115.671 21.821 115.671 20.5348 115.671 19.2486C115.679 18.2001 115.985 17.1767 116.553 16.304C117.119 15.4824 117.957 14.8989 118.911 14.6621C119.794 14.4143 120.72 14.3676 121.622 14.5252C123.199 14.675 124.552 15.7399 125.098 17.2618C125.365 18.0212 125.492 18.8248 125.472 19.6317C125.472 20.2228 125.472 20.8157 125.472 21.4105L125.478 21.3886ZM118.339 21.3503C118.339 21.9414 118.339 22.5325 118.339 23.1236C118.347 23.5444 118.401 23.9629 118.499 24.3715C118.663 25.1633 119.29 25.7678 120.071 25.8875C121.521 26.1448 122.745 25.4278 122.799 23.7749C122.852 22.122 122.799 20.5512 122.799 18.9366C122.83 18.2012 122.445 17.5129 121.809 17.1688C120.985 16.7568 120.015 16.7917 119.221 17.2618C118.698 17.674 118.39 18.3102 118.387 18.9859C118.339 19.7795 118.35 21.3503 118.339 21.3503Z" fill="#2A3D44"/>
<path opacity="0.9" fill-rule="evenodd" clip-rule="evenodd" d="M73.4918 21.3941C73.4918 20.6114 73.4918 19.8233 73.4918 19.0406C73.502 18.0401 73.8098 17.0664 74.3741 16.2493C74.9352 15.44 75.7568 14.8588 76.6947 14.6074C77.5555 14.3691 78.4558 14.3206 79.3363 14.4651C81.2987 14.7442 82.7211 15.9045 83.0793 18.0719C83.3487 20.0563 83.3828 22.0667 83.1809 24.0595C83.1264 25.5239 82.3597 26.8633 81.1383 27.628C80.1484 28.2295 78.9936 28.4832 77.8497 28.3505C76.9916 28.3127 76.1589 28.0406 75.4381 27.5623C74.501 26.9621 73.856 25.9837 73.6629 24.8695C73.5273 23.7165 73.4701 22.5552 73.4918 21.3941ZM80.6241 21.361C80.6241 20.7699 80.6241 20.1788 80.6241 19.5877C80.6082 19.1579 80.5509 18.7307 80.453 18.3125C80.3259 17.6897 79.87 17.1915 79.2712 17.0208C78.779 16.8913 78.2667 16.8615 77.7633 16.9332C76.8851 17.0913 76.2241 17.84 76.1592 18.7503C76.1271 20.4744 76.111 22.2039 76.1592 23.9279C76.1793 24.9119 76.8877 25.7386 77.8382 25.8873C78.8328 26.046 79.9076 25.8216 80.3514 24.634C80.502 24.1727 80.5866 23.6915 80.6027 23.2055C80.6562 22.5925 80.6241 21.974 80.6241 21.361Z" fill="#2A3D44"/>
<path opacity="0.9" fill-rule="evenodd" clip-rule="evenodd" d="M157.877 21.4051C157.877 22.1932 157.877 22.9759 157.877 23.764C157.871 25.1855 157.234 26.527 156.145 27.4092C155.557 27.8712 154.866 28.1742 154.134 28.2903C153.411 28.4228 152.67 28.4228 151.947 28.2903C150.487 28.0831 149.235 27.1215 148.632 25.7453C148.263 24.8985 148.081 23.9793 148.097 23.0525C148.097 21.9032 148.097 20.7538 148.097 19.6044C148.07 18.6103 148.279 17.6243 148.707 16.731C149.26 15.6306 150.274 14.8487 151.46 14.6075C152.717 14.2723 154.044 14.3469 155.257 14.8209C156.307 15.2411 157.131 16.1019 157.519 17.1853C157.813 18.0214 157.946 18.9081 157.909 19.796C157.909 20.3433 157.909 20.8906 157.909 21.3996L157.877 21.4051ZM155.204 21.4052C155.204 20.5733 155.204 19.7632 155.204 18.9204C155.226 18.2087 154.853 17.5453 154.241 17.2073C153.902 17.0212 153.525 16.9181 153.14 16.9063C152.596 16.8522 152.052 16.9935 151.6 17.3058C151.153 17.622 150.873 18.1304 150.84 18.685C150.792 20.4748 150.84 22.27 150.84 24.0651C150.846 24.1454 150.862 24.2246 150.888 24.3005C151.037 25.1047 151.649 25.7353 152.434 25.8932C153.84 26.1833 155.107 25.5265 155.22 23.8243C155.262 23.0034 155.204 22.1933 155.204 21.3833V21.4052Z" fill="#2A3D44"/>
<path opacity="0.9" fill-rule="evenodd" clip-rule="evenodd" d="M127.445 21.3886C127.445 19.5204 127.445 17.654 127.445 15.7895C127.462 15.1829 127.853 14.6539 128.418 14.4705C129.042 14.2787 129.708 14.587 129.979 15.1929C130.063 15.403 130.103 15.6285 130.097 15.8552C130.097 17.1523 130.097 18.4495 130.097 19.7466C130.113 19.8744 130.145 19.9995 130.193 20.1188C130.317 20.0637 130.431 19.9878 130.53 19.8944C131.642 18.3765 132.749 16.855 133.851 15.3298C134.252 14.7825 134.701 14.3391 135.455 14.465C136.105 14.6158 136.546 15.2356 136.487 15.9154C136.433 16.1158 136.338 16.3022 136.209 16.4627C135.097 17.9843 133.984 19.5003 132.856 21.0054C132.648 21.2846 132.589 21.4761 132.824 21.7936C133.894 23.233 134.963 24.6889 136.032 26.1721C136.222 26.3933 136.373 26.6471 136.476 26.9219C136.695 27.71 135.776 28.5639 135 28.4106C134.586 28.3131 134.223 28.059 133.984 27.6991C132.819 26.1082 131.655 24.5174 130.493 22.9265C130.403 22.8378 130.3 22.7639 130.188 22.7076C130.145 22.8165 130.117 22.9305 130.102 23.0469C130.102 24.3769 130.102 25.7123 130.102 27.0423C130.156 27.7143 129.686 28.3115 129.033 28.3997C128.451 28.5289 127.858 28.2292 127.605 27.6772C127.505 27.4173 127.45 27.1411 127.445 26.8617C127.439 25.0063 127.445 23.2002 127.445 21.3886Z" fill="#2A3D44"/>
<path opacity="0.9" fill-rule="evenodd" clip-rule="evenodd" d="M159.881 21.5583C159.881 19.785 159.881 18.0062 159.881 16.2329C159.824 15.5984 160.174 14.999 160.747 14.7497C160.994 14.6496 161.257 14.5994 161.522 14.6019C162.667 14.6019 163.816 14.5526 164.955 14.6457C166.645 14.7825 168.094 15.5706 168.698 17.3823C169.233 18.8383 169.048 20.4691 168.201 21.7608C167.622 22.578 166.769 23.1487 165.805 23.3644C164.891 23.5541 163.956 23.6222 163.025 23.5669C162.522 23.5669 162.517 23.5669 162.517 24.0759C162.517 25.0775 162.517 26.0791 162.517 27.0807C162.502 27.6394 162.141 28.1261 161.619 28.2902C161.195 28.4332 160.729 28.3511 160.376 28.0713C160.024 27.7914 159.83 27.3504 159.859 26.8946C159.859 25.3129 159.859 23.7311 159.859 22.1494C159.874 21.9596 159.881 21.7626 159.881 21.5583ZM162.517 19.0625C162.517 19.6426 162.517 20.2228 162.517 20.8029C162.517 21.0438 162.613 21.1696 162.854 21.1532C163.585 21.1353 164.315 21.0787 165.041 20.9836C165.378 20.885 165.677 20.6824 165.897 20.4034C166.318 19.8276 166.436 19.0767 166.212 18.3948C166.11 17.7895 165.652 17.3122 165.062 17.1961C164.346 17.0648 163.608 17.0703 162.881 17.01C162.603 17.01 162.506 17.114 162.512 17.3932C162.522 17.946 162.517 18.5042 162.517 19.0625Z" fill="#2A3D44"/>
<path opacity="0.9" fill-rule="evenodd" clip-rule="evenodd" d="M143.657 22.3136C143.657 23.8844 143.657 25.4552 143.657 27.026C143.697 27.6134 143.336 28.1513 142.786 28.3231C142.385 28.4668 141.941 28.4029 141.595 28.1517C141.249 27.9006 141.043 27.4933 141.043 27.0589C141.043 26.933 141.043 26.8071 141.043 26.6812C141.043 23.6527 141.043 20.6242 141.043 17.5958C141.043 17.0101 141.043 17.0101 140.465 17.0047C139.888 16.9992 139.353 17.0047 138.797 16.9773C138.483 16.952 138.194 16.7944 137.998 16.5422C137.802 16.29 137.718 15.9658 137.765 15.6473C137.887 15.1542 138.262 14.7683 138.743 14.6403C138.908 14.6123 139.074 14.5977 139.24 14.5965H145.513C145.898 14.5593 146.283 14.6793 146.582 14.9303C146.939 15.191 147.098 15.6533 146.978 16.0852C146.853 16.5761 146.44 16.9334 145.946 16.9773C145.336 17.0266 144.721 16.9773 144.112 17.0101C143.711 17.0101 143.673 17.0485 143.673 17.4644C143.673 19.0808 143.673 20.6972 143.673 22.3136H143.657Z" fill="#2A3D44"/>
<path opacity="0.9" fill-rule="evenodd" clip-rule="evenodd" d="M87.9992 10.7379C88.2238 10.8638 88.4538 10.9842 88.673 11.1265C88.9992 11.3345 89.3093 11.5698 89.6462 11.7559C89.992 11.9112 90.3949 11.8425 90.6728 11.5808C90.9563 11.3892 91.2076 11.1484 91.4963 10.9514C91.8432 10.6928 92.3264 10.7525 92.6032 11.0882C92.8425 11.3904 92.8599 11.8175 92.646 12.139C92.1951 12.9323 91.3994 13.4556 90.5071 13.5456C89.5476 13.7171 88.564 13.4332 87.8335 12.7739C87.4854 12.5147 87.2602 12.1173 87.2132 11.6793C87.1793 11.1982 87.5297 10.7786 87.9992 10.7379V10.7379Z" fill="#2A3D44"/>
<defs>
<linearGradient id="paint0_linear" x1="42.2498" y1="39.7821" x2="42.2498" y2="0" gradientUnits="userSpaceOnUse">
<stop stop-color="#B3EFE8"/>
<stop offset="1" stop-color="#E8EDCF"/>
</linearGradient>
</defs>
</svg>
