<svg width="89" height="18" viewBox="0 0 89 18" fill="none" xmlns="http://www.w3.org/2000/svg">
<path opacity="0.9" fill-rule="evenodd" clip-rule="evenodd" d="M43.9171 8.79294C43.9171 10.0486 43.9171 11.3042 43.9171 12.5598C43.9171 12.795 43.9865 12.9236 44.2076 12.9769C44.6032 13.0616 44.8892 13.415 44.8968 13.8287C44.9401 14.6185 44.9358 15.4171 44.8968 16.2069C44.8584 16.4705 44.7186 16.7074 44.5085 16.8649C44.2984 17.0224 44.0356 17.0874 43.7784 17.0454C43.5038 17.04 43.2434 16.9198 43.0575 16.7128C42.8717 16.5058 42.7766 16.2301 42.7944 15.9495C42.7944 15.6922 42.7944 15.4304 42.7944 15.1731C42.7944 14.9912 42.7337 14.898 42.5474 14.898H37.5971C37.415 14.898 37.3413 14.9867 37.337 15.1687C37.3403 15.5363 37.3215 15.9037 37.2807 16.269C37.153 16.7394 36.728 17.0598 36.2512 17.0451C35.7744 17.0304 35.3691 16.6843 35.2693 16.2069C35.2266 15.4148 35.2266 14.6208 35.2693 13.8287C35.2786 13.4009 35.5849 13.0408 35.9976 12.9724C36.4007 12.8881 36.5264 12.5287 36.6521 12.227C36.9101 11.5279 37.0564 10.7909 37.0856 10.0441C37.1896 8.39659 37.2807 6.74757 37.3587 5.09707C37.3441 4.60404 37.6189 4.14984 38.0566 3.9435C38.2391 3.86578 38.4355 3.828 38.6331 3.83258C39.9595 3.83258 41.2859 3.83258 42.6124 3.83258C42.9696 3.8047 43.3205 3.93976 43.5713 4.20159C43.8221 4.46341 43.9471 4.82526 43.9128 5.19025C43.8911 6.38819 43.9171 7.59057 43.9171 8.79294ZM41.7847 9.35196C41.7847 8.27381 41.7847 7.19566 41.7847 6.11308C41.7847 5.86462 41.7023 5.77144 41.4552 5.77588C40.8787 5.77588 40.3022 5.77588 39.7214 5.77588C39.509 5.77588 39.4179 5.83356 39.4093 6.06871C39.3746 7.17348 39.3486 8.28712 39.2705 9.38745C39.2185 10.1373 39.1015 10.8871 38.9801 11.628C38.902 11.9492 38.8079 12.2661 38.6984 12.5775C38.6203 12.8659 38.6463 12.897 38.9454 12.897H41.4336C41.763 12.897 41.7804 12.897 41.7804 12.5332C41.7832 11.4713 41.7832 10.4094 41.7804 9.34752L41.7847 9.35196Z" fill="#2A3D44"/>
<path opacity="0.9" fill-rule="evenodd" clip-rule="evenodd" d="M7.72676 8.82844C7.47102 9.33868 7.21527 9.85335 6.95952 10.3636C6.70377 10.8738 6.45669 11.4195 6.1836 11.9387C6.0352 12.3238 5.71088 12.6092 5.31666 12.7018C4.73439 12.8217 4.15396 12.4879 3.95122 11.9165L2.46874 8.90831C2.43968 8.86618 2.40781 8.82615 2.37337 8.78851C2.35223 8.92077 2.33776 9.05405 2.33003 9.18783C2.33003 10.7407 2.33003 12.2936 2.33003 13.8421C2.36923 14.4275 1.95273 14.9414 1.38339 15.0101C0.814048 15.0788 0.292212 14.6781 0.19734 14.0994C0.192806 14.0166 0.192806 13.9337 0.19734 13.8509C0.19734 10.8694 0.19734 7.88784 0.19734 4.9063C0.145681 4.49159 0.322553 4.0817 0.656822 3.84146C0.972916 3.6702 1.34397 3.63975 1.68268 3.75727C2.0214 3.8748 2.29787 4.12992 2.44706 4.46261C3.26199 6.14417 4.08993 7.82129 4.91353 9.49397C4.95761 9.55734 5.01013 9.61409 5.06958 9.66257C5.12159 9.60932 5.19095 9.56939 5.22129 9.50284C6.04489 7.82572 6.86704 6.14861 7.68775 4.47149C7.81816 4.12534 8.09098 3.8556 8.43348 3.73419C8.77598 3.61277 9.15335 3.65202 9.46499 3.84146C9.79871 4.04666 9.99396 4.42415 9.97215 4.822C9.97215 5.86613 9.97215 6.90878 9.97215 7.94995C9.97215 9.91694 9.97215 11.8825 9.97215 13.8465C10.0274 14.3883 9.66068 14.8804 9.13555 14.969C8.82984 15.0449 8.50701 14.9769 8.25536 14.7837C8.00371 14.5905 7.84958 14.2924 7.83513 13.9707C7.83513 13.3229 7.83513 12.6796 7.83513 12.0318C7.83513 11.0735 7.83513 10.1107 7.83513 9.15233C7.82958 9.03937 7.818 8.9268 7.80045 8.81513L7.72676 8.82844Z" fill="#2A3D44"/>
<path opacity="0.9" fill-rule="evenodd" clip-rule="evenodd" d="M26.7481 8.36262C26.6845 8.41066 26.6276 8.46739 26.579 8.53121C25.7121 10.0693 24.8452 11.6089 23.9782 13.1499C23.7658 13.5315 23.5447 13.922 23.3367 14.2991C23.1769 14.6296 22.8841 14.8722 22.5351 14.9635C22.186 15.0547 21.8154 14.9854 21.5204 14.7738C21.34 14.5764 21.2 14.3441 21.1086 14.0905C21.0875 13.9911 21.0875 13.8883 21.1086 13.7888C21.1086 10.8073 21.1086 7.82576 21.1086 4.84422C21.0829 4.45869 21.2575 4.08781 21.5681 3.86812C21.8776 3.64368 22.283 3.61294 22.6214 3.78825C23.0165 3.96083 23.2665 4.365 23.25 4.80429C23.25 5.43875 23.25 6.07765 23.25 6.71656C23.25 7.83463 23.25 8.93496 23.25 10.0664C23.2566 10.1794 23.2696 10.292 23.289 10.4036H23.3627L23.9955 9.27216C24.9102 7.63498 25.8161 5.99335 26.7394 4.3606C26.8988 4.05295 27.1732 3.82455 27.4999 3.72756C27.8267 3.63057 28.1779 3.67328 28.4733 3.84593C28.7175 3.98833 28.879 4.243 28.9068 4.5292C28.9068 4.68449 28.9371 4.83978 28.9371 4.99951C28.9371 7.9071 28.9371 10.8147 28.9371 13.7223C28.9912 14.1516 28.8095 14.5765 28.4646 14.8271C27.7798 15.2707 26.8695 14.7383 26.8521 14.1172C26.8521 13.9619 26.8261 13.8066 26.8261 13.6469C26.8261 11.9934 26.8261 10.3414 26.8261 8.69094V8.37149L26.7481 8.36262Z" fill="#2A3D44"/>
<path opacity="0.9" fill-rule="evenodd" clip-rule="evenodd" d="M53.7182 9.33868C53.7182 9.98645 53.7398 10.6298 53.7182 11.2776C53.7086 12.3802 53.2346 13.4249 52.4177 14.1438C51.942 14.5495 51.3714 14.8216 50.7619 14.9335C50.1058 15.0741 49.4283 15.0741 48.7722 14.9335C47.6295 14.7386 46.6615 13.9633 46.2017 12.8748C45.9042 12.2021 45.7561 11.4702 45.7683 10.7318C45.7683 9.68919 45.7683 8.64653 45.7683 7.60388C45.7746 6.75391 46.0232 5.92431 46.4835 5.21687C46.9421 4.5508 47.6214 4.07781 48.3951 3.88582C49.111 3.68496 49.8611 3.6471 50.5928 3.7749C51.8714 3.8963 52.9678 4.75954 53.4104 5.99331C53.6271 6.60889 53.73 7.26036 53.7138 7.91446C53.7138 8.39363 53.7138 8.87429 53.7138 9.35642L53.7182 9.33868ZM47.9313 9.30763C47.9313 9.78681 47.9313 10.266 47.9313 10.7452C47.9378 11.0863 47.9815 11.4255 48.0613 11.7568C48.1937 12.3986 48.7019 12.8887 49.3358 12.9858C50.5105 13.1943 51.5031 12.6131 51.5465 11.2731C51.5898 9.93322 51.5465 8.65985 51.5465 7.35099C51.5722 6.75481 51.26 6.19683 50.7445 5.9179C50.0766 5.58391 49.29 5.61219 48.6465 5.99332C48.2225 6.32743 47.9729 6.84321 47.9703 7.39092C47.9313 8.03426 47.94 9.30763 47.9313 9.30763Z" fill="#2A3D44"/>
<path opacity="0.9" fill-rule="evenodd" clip-rule="evenodd" d="M11.5759 9.34319C11.5759 8.70872 11.5759 8.06982 11.5759 7.43535C11.5842 6.62425 11.8337 5.83497 12.2911 5.17258C12.746 4.51653 13.412 4.04531 14.1724 3.84153C14.8701 3.64838 15.6 3.60906 16.3137 3.72617C17.9046 3.95245 19.0576 4.89306 19.348 6.65004C19.5665 8.25869 19.5941 9.88847 19.4304 11.5039C19.3862 12.6911 18.7647 13.7769 17.7745 14.3967C16.9721 14.8843 16.0359 15.09 15.1087 14.9824C14.413 14.9518 13.738 14.7312 13.1537 14.3435C12.394 13.8569 11.8711 13.0638 11.7146 12.1606C11.6047 11.2259 11.5583 10.2845 11.5759 9.34319ZM17.3583 9.31647C17.3583 8.83729 17.3583 8.35811 17.3583 7.87894C17.3454 7.53051 17.299 7.18423 17.2196 6.84516C17.1165 6.34031 16.747 5.93642 16.2616 5.79807C15.8626 5.69306 15.4473 5.66895 15.0392 5.72708C14.3273 5.85521 13.7914 6.46216 13.7388 7.2001C13.7128 8.5977 13.6998 9.99974 13.7388 11.3973C13.7551 12.195 14.3294 12.8651 15.0999 12.9857C15.9062 13.1144 16.7774 12.9325 17.1372 11.9697C17.2593 11.5957 17.3279 11.2057 17.341 10.8117C17.3843 10.3148 17.3583 9.81339 17.3583 9.31647Z" fill="#2A3D44"/>
<path opacity="0.9" fill-rule="evenodd" clip-rule="evenodd" d="M79.9828 9.35211C79.9828 9.99101 79.9828 10.6255 79.9828 11.2644C79.978 12.4167 79.4612 13.5042 78.5784 14.2193C78.1024 14.5938 77.5418 14.8395 76.9485 14.9336C76.3622 15.041 75.7619 15.041 75.1756 14.9336C73.9924 14.7656 72.977 13.9861 72.4881 12.8705C72.1895 12.184 72.0415 11.4389 72.0546 10.6876C72.0546 9.75586 72.0546 8.82413 72.0546 7.89239C72.0328 7.08646 72.2023 6.28715 72.5488 5.56306C72.9977 4.67099 73.8196 4.03718 74.7811 3.84158C75.7996 3.56986 76.8755 3.63035 77.8588 4.01461C78.71 4.35521 79.3776 5.05309 79.6924 5.93132C79.9308 6.60913 80.0383 7.32791 80.0088 8.04768C80.0088 8.49137 80.0088 8.93505 80.0088 9.34767L79.9828 9.35211ZM77.8154 9.35219C77.8154 8.67779 77.8154 8.02114 77.8154 7.33787C77.8336 6.76097 77.5314 6.22314 77.0351 5.94915C76.7599 5.79826 76.4542 5.71473 76.1422 5.70512C75.7019 5.66129 75.2605 5.77581 74.8938 6.02901C74.5319 6.28536 74.305 6.6975 74.2782 7.14709C74.2392 8.59793 74.2782 10.0532 74.2782 11.5085C74.2829 11.5736 74.296 11.6377 74.3172 11.6993C74.4379 12.3512 74.9339 12.8624 75.57 12.9904C76.71 13.2255 77.7373 12.6931 77.8284 11.3133C77.863 10.6477 77.8154 9.99109 77.8154 9.33444V9.35219Z" fill="#2A3D44"/>
<path opacity="0.9" fill-rule="evenodd" clip-rule="evenodd" d="M55.3134 9.33865C55.3134 7.82421 55.3134 6.31126 55.3134 4.79978C55.3278 4.30801 55.6442 3.87921 56.1024 3.73051C56.608 3.57506 57.1481 3.82499 57.3681 4.31617C57.4358 4.48646 57.4682 4.66925 57.4635 4.85302C57.4635 5.90455 57.4635 6.95608 57.4635 8.0076C57.4765 8.11122 57.5028 8.21265 57.5415 8.30931C57.6418 8.26463 57.7341 8.20315 57.8146 8.1274C58.7162 6.89692 59.6135 5.66348 60.5065 4.42709C60.8316 3.98341 61.1957 3.62402 61.8069 3.72607C62.334 3.8483 62.6916 4.35079 62.6435 4.90183C62.5996 5.06426 62.5228 5.21542 62.4181 5.34551C61.5164 6.57895 60.6148 7.80795 59.7002 9.02807C59.5311 9.25435 59.4835 9.40964 59.6742 9.66697C60.5411 10.8339 61.4081 12.0141 62.275 13.2164C62.4291 13.3957 62.5509 13.6015 62.6348 13.8243C62.8125 14.4632 62.067 15.1553 61.4384 15.0311C61.1026 14.9521 60.8084 14.746 60.6148 14.4543C59.6699 13.1647 58.7263 11.875 57.7842 10.5854C57.7114 10.5135 57.628 10.4536 57.5372 10.4079C57.5027 10.4962 57.4794 10.5887 57.4678 10.683C57.4678 11.7612 57.4678 12.8437 57.4678 13.9219C57.5117 14.4666 57.1303 14.9507 56.6009 15.0222C56.1289 15.127 55.6487 14.884 55.4435 14.4366C55.362 14.2259 55.318 14.002 55.3134 13.7755C55.3091 12.2714 55.3134 10.8072 55.3134 9.33865Z" fill="#2A3D44"/>
<path opacity="0.9" fill-rule="evenodd" clip-rule="evenodd" d="M81.6076 9.4763C81.6076 8.03877 81.6076 6.5968 81.6076 5.15927C81.5617 4.64491 81.8455 4.15904 82.3098 3.95689C82.5098 3.87577 82.7233 3.83509 82.9384 3.8371C83.866 3.8371 84.798 3.79717 85.7213 3.87259C87.0911 3.98351 88.2658 4.62242 88.7556 6.091C89.1891 7.27137 89.0389 8.59336 88.3525 9.64046C87.8828 10.3029 87.1917 10.7656 86.4105 10.9404C85.6692 11.0942 84.9116 11.1494 84.1564 11.1046C83.749 11.1046 83.7446 11.1046 83.7446 11.5172C83.7446 12.3292 83.7446 13.1411 83.7446 13.953C83.7326 14.406 83.4395 14.8005 83.0164 14.9336C82.6728 15.0495 82.2953 14.983 82.0094 14.7561C81.7234 14.5292 81.5663 14.1717 81.5903 13.8022C81.5903 12.52 81.5903 11.2377 81.5903 9.95547C81.6018 9.80166 81.6076 9.64194 81.6076 9.4763ZM83.7446 7.4531C83.7446 7.9234 83.7446 8.39371 83.7446 8.86401C83.7446 9.05923 83.8226 9.16128 84.0177 9.14797C84.6106 9.13343 85.2024 9.08752 85.7906 9.01042C86.0636 8.93051 86.3058 8.76626 86.4842 8.54012C86.8256 8.07332 86.9212 7.46462 86.7399 6.91181C86.6568 6.42113 86.2857 6.03427 85.8079 5.94015C85.2271 5.83366 84.6289 5.8381 84.0394 5.78929C83.814 5.78929 83.7359 5.87359 83.7403 6.09987C83.749 6.54799 83.7446 7.00055 83.7446 7.4531Z" fill="#2A3D44"/>
<path opacity="0.9" fill-rule="evenodd" clip-rule="evenodd" d="M68.4561 10.0886C68.4561 11.3619 68.4561 12.6353 68.4561 13.9087C68.4886 14.3848 68.1956 14.8208 67.7496 14.9602C67.4249 15.0766 67.0652 15.0248 66.7844 14.8212C66.5037 14.6176 66.3368 14.2874 66.3364 13.9353C66.3364 13.8332 66.3364 13.7312 66.3364 13.6292C66.3364 11.1741 66.3364 8.71907 66.3364 6.26403C66.3364 5.78929 66.3364 5.78929 65.8683 5.78486C65.4001 5.78042 64.9667 5.78486 64.5159 5.76267C64.2615 5.7422 64.027 5.61443 63.8683 5.40996C63.7096 5.20549 63.6412 4.94271 63.6793 4.68452C63.7785 4.28473 64.0825 3.97191 64.4725 3.86815C64.6058 3.84549 64.7406 3.83363 64.8756 3.83265H69.9603C70.2728 3.80251 70.5843 3.89977 70.8272 4.1033C71.1168 4.31456 71.2452 4.68938 71.148 5.03947C71.0468 5.43746 70.7117 5.72711 70.3114 5.76267C69.8172 5.8026 69.3187 5.76267 68.8246 5.78929C68.4995 5.78929 68.4691 5.82035 68.4691 6.15755C68.4691 7.46789 68.4691 8.77823 68.4691 10.0886H68.4561Z" fill="#2A3D44"/>
<path opacity="0.9" fill-rule="evenodd" clip-rule="evenodd" d="M23.3363 0.704712C23.5184 0.806759 23.7048 0.904369 23.8825 1.01973C24.1469 1.18833 24.3983 1.37911 24.6714 1.52996C24.9518 1.65583 25.2783 1.60012 25.5037 1.38798C25.7334 1.23269 25.9371 1.03747 26.1712 0.877748C26.4524 0.66811 26.8441 0.71653 27.0685 0.988668C27.2625 1.23366 27.2766 1.57988 27.1032 1.84054C26.7377 2.48361 26.0926 2.90782 25.3693 2.9808C24.5915 3.1198 23.7942 2.88965 23.2019 2.35521C22.9198 2.14504 22.7372 1.82289 22.6991 1.46784C22.6716 1.07783 22.9556 0.737702 23.3363 0.704712V0.704712Z" fill="#2A3D44"/>
</svg>
