<svg width="14" height="8" viewBox="0 0 14 8" fill="none" xmlns="http://www.w3.org/2000/svg">
<path d="M0.333008 7.33333C0.333008 7.70152 0.631485 8 0.999674 8H12.9997C13.3679 8 13.6663 7.70152 13.6663 7.33333C13.6663 6.96514 13.3679 6.66667 12.9997 6.66667H0.999674C0.631485 6.66667 0.333008 6.96514 0.333008 7.33333Z" fill="#70C9B9"/>
<path d="M0.333008 4C0.333008 4.36819 0.631485 4.66667 0.999674 4.66667H8.99967C9.36786 4.66667 9.66634 4.36819 9.66634 4C9.66634 3.63181 9.36786 3.33333 8.99967 3.33333H0.999674C0.631485 3.33333 0.333008 3.63181 0.333008 4Z" fill="#70C9B9"/>
<path d="M0.999674 1.33333C0.631485 1.33333 0.333008 1.03486 0.333008 0.666666C0.333008 0.298476 0.631485 -2.38419e-07 0.999674 -2.38419e-07H3.66634C4.03453 -2.38419e-07 4.33301 0.298476 4.33301 0.666666C4.33301 1.03486 4.03453 1.33333 3.66634 1.33333H0.999674Z" fill="#70C9B9"/>
</svg>
