<svg width="14" height="8" viewBox="0 0 14 8" fill="none" xmlns="http://www.w3.org/2000/svg">
<path d="M0.333008 0.666667C0.333008 0.298477 0.631485 0 0.999674 0H12.9997C13.3679 0 13.6663 0.298477 13.6663 0.666667C13.6663 1.03486 13.3679 1.33333 12.9997 1.33333H0.999674C0.631485 1.33333 0.333008 1.03486 0.333008 0.666667Z" fill="#70C9B9"/>
<path d="M0.333008 4C0.333008 3.63181 0.631485 3.33333 0.999674 3.33333H8.99967C9.36786 3.33333 9.66634 3.63181 9.66634 4C9.66634 4.36819 9.36786 4.66667 8.99967 4.66667H0.999674C0.631485 4.66667 0.333008 4.36819 0.333008 4Z" fill="#70C9B9"/>
<path d="M0.999674 6.66667C0.631485 6.66667 0.333008 6.96514 0.333008 7.33333C0.333008 7.70152 0.631485 8 0.999674 8H3.66634C4.03453 8 4.33301 7.70152 4.33301 7.33333C4.33301 6.96514 4.03453 6.66667 3.66634 6.66667H0.999674Z" fill="#70C9B9"/>
</svg>
