<svg width="16" height="14" viewBox="0 0 16 14" fill="none" xmlns="http://www.w3.org/2000/svg">
<path d="M7.12477 0.745361C7.49591 0.0181098 8.53506 0.0181087 8.9062 0.74536L10.3416 3.55806C10.4869 3.84278 10.7596 4.04088 11.0753 4.09109L14.1939 4.58708C15.0002 4.71532 15.3213 5.70361 14.7444 6.28132L12.5129 8.51566C12.287 8.74183 12.1829 9.06236 12.2327 9.37811L12.7247 12.4974C12.8519 13.3039 12.0112 13.9147 11.2834 13.5445L8.46891 12.1126C8.184 11.9677 7.84697 11.9677 7.56207 12.1126L4.74753 13.5445C4.0198 13.9147 3.17911 13.3039 3.30632 12.4974L3.79831 9.37811C3.84811 9.06236 3.74396 8.74183 3.51808 8.51566L1.28661 6.28132C0.70964 5.70361 1.03075 4.71532 1.8371 4.58708L4.95571 4.09109C5.27139 4.04088 5.54405 3.84278 5.68936 3.55806L7.12477 0.745361Z" fill="#FFB84E"/>
</svg>
