<svg width="64" height="64" viewBox="0 0 64 64" fill="none" xmlns="http://www.w3.org/2000/svg">
<g clip-path="url(#clip0)">
<path d="M32.5002 63.7334C47.5776 63.7334 59.8002 51.5108 59.8002 36.4334C59.8002 21.3561 47.5776 9.13342 32.5002 9.13342C17.4228 9.13342 5.2002 21.3561 5.2002 36.4334C5.2002 51.5108 17.4228 63.7334 32.5002 63.7334Z" fill="#AFEFDB"/>
<path d="M20.8425 23.1805C19.0797 29.5503 23.871 35.8477 30.4802 35.8477H35.1535C42.4289 35.8477 47.7001 28.9113 45.7517 21.9017L41.3731 6.1498C40.2356 3.24235 37.4328 1.32983 34.3115 1.32983H32.6189C29.493 1.32983 26.6872 3.24842 25.5527 6.16042L20.8425 23.1805Z" fill="#685250"/>
<path d="M38.9305 23.9465H27.9893V49.2612H38.9305V23.9465Z" fill="#FFC2A8"/>
<path d="M42 58V30.5C37.6231 35.9068 29.3769 35.9068 25 30.5V58H42Z" fill="#70C9B9"/>
<path d="M27.4994 78.8876C20.3028 76.9766 13.8812 74.2254 8.50618 70.3427C6.11439 68.6152 4.91774 65.6699 5.46829 62.77C7.50062 52.0548 9.88027 42.3875 13.3216 35.9144C14.2119 34.24 15.6967 32.9614 17.4848 32.329L28.0151 28.598L26.2203 41.0163C25.7596 44.2041 26.5997 47.4433 28.5517 50.0053L31.8572 54.3438C32.6732 55.4148 34.293 55.3899 35.0755 54.2942L38.3013 49.7782C40.0377 47.3472 40.8049 44.3559 40.4528 41.3893L38.932 28.5737L49.8748 35.4154C51.6493 36.5241 52.8808 38.3183 53.2933 40.3704C54.6841 47.2864 55.6806 54.7089 56.3919 62.4925C56.4889 63.5602 56.3646 64.6355 56.0203 65.6502C54.2003 71.0146 50.4238 76.511 45.9284 82.0544L43.206 70.4489L31.5762 66.4707" fill="#F4FCFB"/>
<path d="M38.9305 22.6572H27.9893V27.2831C27.9984 27.2906 28.0059 27.2997 28.0135 27.3088L30.6389 29.8113C31.2592 30.4028 32.0843 30.7335 32.9412 30.7335H33.9786C34.8355 30.7335 35.6605 30.4028 36.2809 29.8113L38.9062 27.3088C38.9153 27.3013 38.9229 27.2922 38.9305 27.2831V22.6572Z" fill="#E6A184"/>
<path d="M33.9786 28.1521H32.9412C32.0843 28.1521 31.2592 27.8215 30.6389 27.23L28.0135 24.7275C27.554 24.2892 27.2431 23.7174 27.1263 23.094L26.2754 18.5744C26.1056 17.6704 26.101 16.7422 26.2618 15.8368L26.5105 14.443C26.7532 13.0825 27.1854 11.763 27.7921 10.5209C28.8098 8.43998 30.924 7.12048 33.2415 7.12048H33.6783C35.9942 7.12048 38.1085 8.43998 39.1277 10.5209C39.7359 11.7615 40.1666 13.0825 40.4093 14.443L40.658 15.8368C40.8203 16.7422 40.8157 17.6704 40.6443 18.5744L39.7935 23.094C39.6752 23.7189 39.3658 24.2892 38.9062 24.7275L36.2809 27.23C35.6606 27.823 34.8355 28.1521 33.9786 28.1521Z" fill="#FFC2A8"/>
<path d="M31.8328 13.6817L28.8632 13.3874L28.7995 13.3814C28.7555 13.3768 28.7085 13.3859 28.6675 13.4102L26.9446 14.4173C26.9158 14.4339 26.9006 14.4673 26.9082 14.5007C26.9173 14.5416 26.9582 14.5674 27.0007 14.5583L28.8025 14.1473L31.6796 14.71C31.6948 14.713 31.7115 14.716 31.7281 14.7176C32.0148 14.7464 32.2696 14.5371 32.2984 14.2504C32.3272 13.9653 32.1194 13.7105 31.8328 13.6817Z" fill="#685250"/>
<path d="M35.0874 13.6817L38.057 13.3874L38.1207 13.3814C38.1647 13.3768 38.2117 13.3859 38.2527 13.4102L39.9756 14.4173C40.0044 14.4339 40.0196 14.4673 40.012 14.5007C40.0029 14.5416 39.962 14.5674 39.9195 14.5583L38.1177 14.1473L35.2406 14.71C35.2254 14.713 35.2087 14.716 35.1921 14.7176C34.9054 14.7464 34.6506 14.5371 34.6218 14.2504C34.593 13.9653 34.8023 13.7105 35.0874 13.6817Z" fill="#685250"/>
<path d="M50.3745 60.3298L43.2021 70.4475L47.9144 75.4206L54.5241 63.6528L50.3745 60.3298Z" fill="#F8FBFA"/>
<path d="M36.7954 22.9537C35.1058 25.2864 31.8192 25.2606 30.1221 22.9537C32.3455 23.6226 34.5704 23.6226 36.7954 22.9537Z" fill="#F38079"/>
<path d="M33.4728 24.7714C32.1321 24.7714 30.89 24.1268 30.0619 23.0014C30.0421 22.9757 30.0421 22.9393 30.0603 22.9135C30.0785 22.8862 30.1134 22.8756 30.1438 22.8847C32.3429 23.5444 34.5739 23.5444 36.7731 22.8847C36.8034 22.8756 36.8383 22.8877 36.8565 22.9135C36.8747 22.9393 36.8747 22.9757 36.8565 23.0014C36.0451 24.1223 34.8166 24.7669 33.488 24.7729C33.4835 24.7714 33.4789 24.7714 33.4728 24.7714ZM30.3258 23.094C31.125 24.0707 32.2686 24.6258 33.488 24.6197C34.6953 24.6152 35.8161 24.0616 36.5957 23.0924C34.5148 23.6764 32.4081 23.6764 30.3258 23.094Z" fill="#E6A184"/>
<path d="M36.7954 22.9537C34.5704 23.7636 32.347 23.7636 30.1221 22.9537C30.9866 23.1585 31.8101 23.116 32.5791 22.7217C33.166 22.9143 33.753 22.9158 34.3399 22.7262C35.1271 23.1994 35.9476 23.2207 36.7954 22.9537Z" fill="#F58D86"/>
<path d="M33.4612 23.637C32.3373 23.637 31.215 23.4337 30.0987 23.0288C30.0608 23.0151 30.0411 22.9742 30.0517 22.9363C30.0623 22.8983 30.1017 22.8756 30.1412 22.8847C31.0466 23.0985 31.8323 23.0242 32.5451 22.6587C32.5633 22.6496 32.5845 22.6481 32.6027 22.6542C33.1715 22.8407 33.7478 22.8422 34.3166 22.6587C34.3378 22.6526 34.3605 22.6542 34.3787 22.6663C35.0946 23.0955 35.8787 23.1668 36.7736 22.8862C36.813 22.8741 36.8555 22.8953 36.8676 22.9347C36.8797 22.9742 36.86 23.0166 36.8221 23.0303C35.7073 23.4337 34.5835 23.637 33.4612 23.637ZM30.992 23.1516C32.5678 23.5778 34.1543 23.5945 35.7301 23.2032C35.2341 23.1986 34.7716 23.0682 34.3317 22.8104C33.7524 22.9909 33.1654 22.9893 32.5876 22.8043C32.0931 23.0546 31.5668 23.1698 30.992 23.1516Z" fill="#F58D86"/>
<path d="M34.0731 21.2755H32.9629C32.837 21.2755 32.7354 21.1739 32.7354 21.048C32.7354 20.9222 32.837 20.8205 32.9629 20.8205H33.8456V15.1861C33.8456 15.0602 33.9472 14.9586 34.0731 14.9586C34.1989 14.9586 34.3006 15.0602 34.3006 15.1861V21.048C34.3006 21.1739 34.1974 21.2755 34.0731 21.2755Z" fill="#685250"/>
<path d="M33.5166 7.35107C33.3907 7.35107 33.2891 7.24945 33.2891 7.12357V1.42696C33.2891 1.30108 33.3907 1.19946 33.5166 1.19946C33.6425 1.19946 33.7441 1.30108 33.7441 1.42696V7.12357C33.7441 7.24945 33.6425 7.35107 33.5166 7.35107Z" fill="#987C79"/>
<path d="M29.6493 16.7877C29.9944 16.7877 30.2741 16.5079 30.2741 16.1628C30.2741 15.8177 29.9944 15.538 29.6493 15.538C29.3042 15.538 29.0244 15.8177 29.0244 16.1628C29.0244 16.5079 29.3042 16.7877 29.6493 16.7877Z" fill="#685250"/>
<path d="M27.6356 16.5117C27.5598 16.5117 27.484 16.4737 27.4415 16.4025C27.3763 16.2948 27.4096 16.1552 27.5173 16.09C29.2433 15.0329 30.5325 15.0526 31.3484 16.1477C31.4243 16.2478 31.403 16.3903 31.3014 16.4662C31.1998 16.542 31.0587 16.5208 30.9829 16.4191C30.1017 15.2377 28.7185 15.8868 27.7539 16.4768C27.716 16.501 27.6751 16.5117 27.6356 16.5117Z" fill="#685250"/>
<path d="M37.3856 16.7877C37.7307 16.7877 38.0105 16.5079 38.0105 16.1628C38.0105 15.8177 37.7307 15.538 37.3856 15.538C37.0405 15.538 36.7607 15.8177 36.7607 16.1628C36.7607 16.5079 37.0405 16.7877 37.3856 16.7877Z" fill="#685250"/>
<path d="M39.3988 16.5118C39.3578 16.5118 39.3169 16.5011 39.2805 16.4784C38.3159 15.8869 36.9312 15.2393 36.0515 16.4208C35.9757 16.5224 35.8331 16.5421 35.733 16.4678C35.6329 16.3935 35.6117 16.2509 35.686 16.1493C36.5035 15.0527 37.7926 15.033 39.5171 16.0916C39.6248 16.1569 39.6581 16.2979 39.5929 16.4041C39.5505 16.4738 39.4761 16.5118 39.3988 16.5118Z" fill="#685250"/>
<path d="M33.4747 23.7886C32.3342 23.7886 31.1891 23.5823 30.0455 23.1713C29.9272 23.1288 29.8666 22.9984 29.909 22.8801C29.9515 22.7618 30.0819 22.7011 30.2002 22.7436C32.3827 23.5307 34.5758 23.5307 36.7174 22.7436C36.8357 22.6996 36.9661 22.7603 37.0086 22.8786C37.0526 22.9969 36.9919 23.1273 36.8736 23.1698C35.7513 23.5823 34.6153 23.7886 33.4747 23.7886Z" fill="#F58D86"/>
<path d="M23 14H22C21.4477 14 21 14.4475 21 14.9994V19.0006C21 19.5525 21.4477 20 22 20H23C23.5523 20 24 19.5525 24 19.0006V14.9994C24 14.4475 23.5523 14 23 14Z" fill="#8BDACB" stroke="#70C9B9" stroke-linecap="round" stroke-linejoin="round"/>
<path d="M45 14H44C43.4477 14 43 14.4475 43 14.9994V19.0006C43 19.5525 43.4477 20 44 20H45C45.5523 20 46 19.5525 46 19.0006V14.9994C46 14.4475 45.5523 14 45 14Z" fill="#8BDACB" stroke="#70C9B9" stroke-linecap="round" stroke-linejoin="round"/>
<path d="M43 16.4483V11.6838C43 8.85026 41.9993 6.1328 40.218 4.12921C38.4367 2.12561 36.0208 1 33.5017 1C30.9823 1 28.566 2.12549 26.7842 4.12898C25.0024 6.13246 24.0009 8.84991 24 11.6838V17" stroke="#70C9B9" stroke-linejoin="round"/>
<path d="M43 20C43 20 42.5222 23.5525 38 25" stroke="#70C9B9" stroke-linecap="round" stroke-linejoin="round"/>
<path d="M37.9639 24.5269C38.143 25.0187 37.6379 25.6291 36.8318 25.8834C36.0257 26.1378 35.234 25.9648 35.0405 25.4731C34.8471 24.9813 35.3665 24.3709 36.169 24.1166C36.9715 23.8622 37.7955 24.0352 37.9639 24.5269Z" fill="#8BDACB" stroke="#70C9B9" stroke-linecap="round" stroke-linejoin="round"/>
</g>
<defs>
<clipPath id="clip0">
<rect width="64" height="64" fill="white"/>
</clipPath>
</defs>
</svg>
